<?xml version="1.0" encoding="UTF-8"?>
<svg width="504px" height="505px" viewBox="0 0 504 505" version="1.1" xmlns="http://www.w3.org/2000/svg" xmlns:xlink="http://www.w3.org/1999/xlink">
    <!-- Generator: Sketch 48.2 (47327) - http://www.bohemiancoding.com/sketch -->
    <title>未命名</title>
    <desc>Created with Sketch.</desc>
    <defs></defs>
    <g id="Page-1" stroke="none" stroke-width="1" fill="none" fill-rule="evenodd">
        <g id="Arch-Linux-(6)" fill="#000000" fill-rule="nonzero">
            <path d="M251.946747,0.9230768 C229.537295,55.8650943 216.020998,91.8036288 191.071007,145.112427 C206.368477,161.32774 225.145398,180.211281 255.639055,201.538463 C222.855383,188.048184 200.492907,174.504263 183.781066,160.449705 C151.849838,227.079122 101.822784,321.989766 0.30177505,504.40237 C80.0938794,458.337003 141.9473,429.937211 199.591717,419.100594 C197.116443,408.454478 195.709152,396.938629 195.804735,384.923079 L195.89941,382.366866 C197.165525,331.246181 223.758466,291.934366 255.260357,294.603552 C286.762263,297.272738 311.248345,340.902955 309.982251,392.023671 C309.744125,401.64297 308.659109,410.896628 306.763316,419.479293 C363.781878,430.633137 424.973907,458.960219 503.686394,504.40237 C488.165826,475.827923 474.312378,450.070142 461.082843,425.538464 C440.24417,409.387106 418.508407,388.366052 374.1716,365.60947 C404.646174,373.52805 426.465584,382.663978 443.473376,392.875742 C308.964976,142.444607 298.072676,109.167479 251.946747,0.9230768 Z" id="path2518"></path>
        </g>
    </g>
</svg>